<!DOCTYPE svg PUBLIC "-//W3C//DTD SVG 20010904//EN" "http://www.w3.org/TR/2001/REC-SVG-20010904/DTD/svg10.dtd">
<svg version="1.0" xmlns="http://www.w3.org/2000/svg" width="400px" height="409px" viewBox="0 0 4000 4090" preserveAspectRatio="xMidYMid meet">
<g id="layer101" fill="#8d0641" stroke="none">
<path d="M1560 4054 l55 -35 -37 3 c-21 2 -38 0 -38 -5 0 -4 -5 -5 -12 -1 -7 4 -8 3 -4 -5 4 -6 42 -37 84 -68 187 -138 359 -359 387 -498 19 -90 35 -220 37 -292 2 -48 6 -75 11 -67 10 17 -7 201 -28 313 -35 182 -201 409 -404 552 -33 23 -59 45 -56 47 9 9 156 -112 231 -190 88 -92 144 -169 193 -266 63 -124 96 -447 58 -558 -10 -29 -34 -69 -54 -89 -35 -36 -128 -87 -184 -100 -32 -8 -40 9 -84 178 -26 100 -31 134 -24 160 24 84 -3 238 -55 317 -35 54 -108 88 -207 99 -46 5 -97 14 -112 20 -78 31 -157 -14 -157 -89 0 -18 -2 -19 -13 -8 -7 7 -20 25 -30 40 -27 44 -63 61 -145 71 -145 17 -165 15 -208 -18 -21 -17 -55 -37 -75 -47 -53 -23 -115 -83 -139 -133 -20 -42 -43 -61 -60 -50 -11 7 -40 -47 -40 -72 1 -10 7 -1 15 20 7 21 17 42 21 45 4 4 4 -2 0 -13 -23 -58 -29 -100 -29 -200 -1 -90 3 -123 22 -180 13 -38 30 -78 39 -88 8 -9 13 -19 10 -22 -9 -10 -38 44 -61 113 -17 54 -22 90 -21 187 0 103 -1 112 -9 65 -19 -122 17 -296 77 -366 18 -22 41 -64 51 -94 33 -101 147 -384 181 -451 34 -64 34 -66 19 -102 -21 -51 -17 -152 11 -239 4 -13 -4 -18 -38 -23 -104 -17 -252 -97 -338 -182 -25 -25 -39 -42 -31 -38 9 5 12 3 9 -6 -3 -8 -10 -14 -15 -14 -20 0 -26 -14 -9 -21 9 -3 13 -10 10 -15 -3 -5 4 -5 18 0 13 5 27 9 31 9 5 0 12 3 15 7 4 4 -9 4 -28 1 -24 -5 -30 -4 -20 3 14 9 101 28 90 20 -3 -2 -23 -20 -44 -39 -22 -19 -35 -28 -31 -20 4 8 -3 5 -16 -7 -21 -20 -22 -25 -9 -38 13 -13 21 -13 65 1 28 8 63 13 78 11 15 -2 30 0 33 5 8 13 -59 9 -111 -7 -27 -8 -51 -12 -53 -10 -8 8 104 35 148 35 l47 0 -43 -44 c-59 -62 -84 -134 -84 -242 0 -53 6 -98 15 -121 8 -19 15 -46 15 -59 0 -13 5 -24 11 -24 5 0 7 -5 3 -12 -4 -7 -3 -8 5 -4 6 4 9 12 6 17 -4 5 3 21 14 35 22 28 101 94 114 94 4 0 7 -17 7 -38 0 -21 11 -72 25 -113 25 -72 25 -74 6 -89 -10 -8 -129 -113 -264 -232 -251 -223 -305 -276 -363 -363 -19 -27 -34 -45 -34 -38 0 13 57 92 98 136 14 15 22 27 17 27 -4 0 -13 -6 -19 -14 -6 -8 -31 -40 -55 -71 -39 -49 -45 -63 -48 -116 -4 -47 -1 -60 11 -65 31 -12 166 66 496 287 184 123 337 225 340 227 3 1 23 -30 45 -70 36 -66 39 -80 41 -155 1 -58 -2 -81 -10 -76 -6 3 -5 0 2 -8 6 -7 12 -21 12 -31 0 -10 7 -21 15 -24 8 -4 12 -11 9 -16 -4 -7 -1 -7 8 -2 20 12 62 63 77 94 11 23 11 24 -3 5 -8 -11 -25 -35 -38 -52 -13 -18 -27 -33 -31 -33 -4 0 6 17 22 37 37 47 68 115 77 172 l7 43 69 -69 c107 -105 112 -116 105 -231 -3 -56 -13 -121 -25 -155 -15 -47 -17 -60 -6 -64 10 -3 10 -11 3 -31 -6 -15 -7 -23 -3 -19 4 3 12 -1 19 -10 11 -14 16 -13 56 15 65 45 159 155 159 186 0 5 -18 -18 -39 -52 -36 -54 -141 -152 -165 -152 -5 0 16 18 47 40 60 43 129 130 147 186 l11 34 32 -42 c52 -67 114 -94 304 -134 92 -20 194 -47 226 -61 56 -25 107 -72 107 -96 -1 -7 -7 -1 -15 13 -8 14 -14 21 -14 15 -1 -18 17 -38 37 -42 18 -2 19 2 14 45 -2 26 -12 72 -21 102 l-17 55 60 1 c36 0 94 11 143 27 115 37 202 50 301 45 85 -4 152 -27 152 -52 0 -5 -8 -2 -17 6 -67 57 -267 49 -478 -21 -33 -11 -53 -20 -44 -20 9 -1 42 8 73 19 132 45 322 64 397 39 19 -7 44 -21 57 -32 21 -19 24 -20 39 -5 15 15 15 21 -2 79 -9 35 -19 69 -22 76 -4 9 4 13 23 13 32 1 269 69 243 70 -9 0 -62 -13 -117 -30 -56 -16 -116 -30 -135 -30 l-33 0 24 -75 c24 -75 24 -105 0 -105 -9 0 -9 3 2 10 12 8 11 19 -9 82 -13 40 -28 78 -33 85 -6 8 7 12 49 15 32 2 99 17 148 32 224 69 375 56 419 -34 4 -8 -2 -4 -13 10 -11 14 -21 20 -21 14 0 -6 9 -19 20 -29 18 -16 20 -17 26 -1 15 38 -32 226 -66 268 -17 21 -16 22 18 45 19 13 36 22 39 19 2 -2 -9 -12 -26 -22 -17 -10 -31 -23 -31 -28 0 -11 20 6 120 99 94 89 136 109 219 111 40 1 67 6 69 13 2 6 9 8 15 4 7 -3 3 3 -7 15 -22 26 -35 30 -15 5 9 -10 2 -8 -17 6 -17 12 -48 29 -70 37 l-39 14 65 -6 c172 -18 257 0 318 70 17 20 32 32 32 27 0 -6 -15 -26 -34 -45 -37 -36 -89 -59 -176 -74 l-55 -10 60 5 c73 6 158 44 188 84 12 17 23 48 24 70 l3 40 -38 -21 c-20 -12 -28 -15 -18 -6 11 9 17 16 13 16 -4 0 -1 13 8 29 8 17 14 41 13 54 l-2 25 -38 -25 c-20 -14 -52 -26 -70 -26 -31 -2 -34 2 -75 78 -24 44 -50 87 -59 95 -8 8 0 -10 18 -40 18 -31 42 -75 52 -98 25 -56 52 -62 117 -28 27 14 47 21 43 15 -4 -6 -27 -20 -51 -31 -69 -30 -86 -21 -133 72 -22 44 -57 99 -78 122 l-37 41 43 -7 c43 -6 116 -38 126 -54 3 -5 -16 2 -42 14 -60 29 -112 42 -95 24 6 -7 26 -14 43 -15 17 -2 49 -15 71 -30 23 -15 39 -22 35 -17 -3 5 1 12 9 16 20 7 19 28 -9 116 -39 128 -87 202 -169 266 -42 33 -127 70 -127 56 0 -4 20 -13 44 -20 59 -15 153 -103 193 -179 35 -66 78 -204 70 -225 -3 -8 -6 -5 -6 8 -1 33 -58 192 -83 232 -53 86 -129 146 -209 165 l-27 7 34 62 c47 87 74 179 74 252 -1 162 -116 472 -251 675 -27 41 -47 76 -45 78 7 7 111 -163 163 -267 55 -111 104 -251 128 -363 28 -131 15 -227 -47 -351 -16 -32 -27 -60 -25 -62 7 -7 75 148 88 199 37 150 -48 444 -204 706 -34 57 -77 120 -95 140 -18 20 -31 30 -27 24 3 -7 2 -13 -4 -13 -6 0 -23 42 -39 93 -40 125 -71 192 -138 295 -57 88 -227 268 -274 291 -17 8 -14 3 10 -16 187 -149 320 -341 390 -563 47 -150 35 -139 -18 15 -52 154 -102 246 -192 359 -78 97 -216 216 -232 201 -3 -3 -19 18 -36 48 -38 67 -100 131 -181 186 -65 44 -286 155 -331 165 l-25 6 25 -11 c167 -77 278 -134 327 -167 78 -53 156 -138 190 -206 20 -42 29 -52 34 -39 7 20 45 -116 53 -192 l6 -50 -16 50 c-9 28 -17 62 -17 77 0 15 -4 25 -8 22 -10 -6 -13 15 -10 56 1 16 -1 21 -7 13 -5 -8 -19 9 -40 53 -62 126 -167 211 -382 312 -242 114 -691 242 -848 242 l-56 0 54 -36z m1750 -1264 c-6 -37 -8 -40 -9 -13 -1 29 8 68 14 61 1 -2 -1 -23 -5 -48z m-2750 8 c5 -13 39 -104 76 -203 36 -99 88 -225 115 -281 l49 -101 -16 -39 c-19 -45 -14 -146 10 -226 l14 -48 -28 0 c-83 0 -245 -74 -338 -154 -30 -25 -56 -46 -58 -46 -14 0 16 28 86 80 85 62 197 114 273 125 26 4 47 8 47 9 0 0 -7 33 -15 71 -19 90 -19 146 0 192 15 36 15 38 -19 102 -37 72 -132 308 -177 440 -16 47 -35 88 -42 93 -9 6 -9 8 1 8 7 0 17 -10 22 -22z m2790 -1755 l25 -6 -25 -7 c-33 -11 -110 -11 -135 0 -18 7 -17 8 10 15 17 4 34 8 40 9 10 3 46 -2 85 -11z m337 -141 c6 -4 -17 -7 -50 -7 -80 0 -122 -21 -209 -103 -37 -36 -68 -60 -68 -54 0 13 93 97 140 127 19 12 49 27 65 33 35 12 105 15 122 4z m-2730 -454 c-2 -13 -4 -3 -4 22 0 25 2 35 4 23 2 -13 2 -33 0 -45z m312 -265 c0 -5 -7 -24 -15 -43 l-14 -35 6 32 c5 29 3 32 -13 27 -16 -6 -16 -5 2 9 22 18 35 21 34 10z"/>
<path d="M3253 1033 c15 -2 39 -2 55 0 15 2 2 4 -28 4 -30 0 -43 -2 -27 -4z"/>
<path d="M1750 4075 c72 -18 100 -17 35 1 -27 7 -59 13 -70 13 -11 0 5 -7 35 -14z"/>
<path d="M1536 4050 c12 -12 27 -21 33 -19 7 3 -3 13 -21 23 l-33 19 21 -23z"/>
<path d="M1885 4044 c28 -8 120 -37 205 -64 85 -27 156 -48 157 -46 9 8 -370 127 -398 125 -8 -1 9 -8 36 -15z"/>
<path d="M795 3607 c-17 -8 -36 -21 -43 -30 -8 -9 -38 -27 -67 -41 -29 -13 -71 -42 -92 -63 -41 -41 -99 -135 -79 -127 7 3 18 19 24 37 17 46 86 115 142 141 26 12 62 34 79 49 39 32 93 44 136 28 17 -6 53 -11 79 -11 62 0 106 -20 143 -64 l30 -37 13 31 c15 37 48 61 98 71 32 6 33 7 9 8 -39 1 -84 -24 -106 -59 l-18 -30 -33 35 c-38 40 -79 55 -153 60 -29 2 -70 6 -92 9 -24 4 -52 1 -70 -7z"/>
<path d="M1330 3576 c19 -8 58 -14 85 -14 l50 1 -55 8 c-30 4 -68 10 -85 13 -28 6 -28 5 5 -8z"/>
<path d="M1495 3551 c40 -10 95 -39 123 -65 68 -61 112 -251 83 -354 -8 -25 -3 -58 24 -157 18 -70 36 -129 40 -133 4 -4 5 2 1 13 -42 141 -64 248 -55 278 22 76 1 216 -45 304 -29 57 -128 124 -178 122 -19 -1 -17 -2 7 -8z"/>
<path d="M2016 2983 c-4 -18 -14 -36 -21 -40 -8 -5 -13 -12 -12 -18 4 -33 -187 -129 -205 -103 -7 10 -9 10 -5 -2 6 -20 38 -15 109 17 80 35 159 127 145 167 -2 6 -7 -4 -11 -21z"/>
<path d="M497 1548 c-14 -18 -32 -47 -40 -64 -17 -33 -43 -162 -34 -170 2 -3 8 17 11 43 12 82 25 120 61 172 38 57 39 68 2 19z"/>
<path d="M431 1267 c0 -21 4 -48 11 -60 6 -12 15 -35 19 -52 6 -25 7 -26 8 -7 1 13 -4 33 -11 45 -7 12 -15 42 -19 67 l-6 45 -2 -38z"/>
<path d="M565 1186 l-60 -58 55 47 55 47 7 -38 c4 -22 15 -64 26 -95 l19 -57 -59 -53 c-33 -30 -62 -56 -66 -59 -4 -3 -14 -14 -22 -25 -13 -19 27 15 116 98 l41 38 -19 57 c-11 31 -23 79 -26 106 l-7 50 -60 -58z"/>
<path d="M3978 1168 c-13 -29 -14 -37 -4 -29 13 11 31 60 24 66 -2 2 -11 -15 -20 -37z"/>
<path d="M3669 951 c12 -8 51 -4 51 5 0 2 -15 4 -32 4 -23 0 -29 -3 -19 -9z"/>
<path d="M455 844 c-22 -19 -62 -55 -88 -80 -27 -24 -56 -49 -65 -56 -9 -7 -24 -22 -32 -33 -15 -20 91 70 184 157 59 55 60 64 1 12z"/>
<path d="M830 766 c-8 -7 -152 -105 -320 -217 -300 -201 -425 -275 -485 -290 -25 -6 -26 -7 -7 -8 43 -2 182 80 505 297 242 161 322 210 332 202 26 -21 57 -114 59 -172 0 -32 5 -58 10 -58 17 0 -4 131 -29 179 -38 74 -47 84 -65 67z"/>
<path d="M3328 630 c9 -21 18 -35 20 -30 3 9 -25 70 -33 70 -2 0 4 -18 13 -40z"/>
<path d="M185 605 c-32 -31 -56 -58 -53 -60 2 -3 31 22 63 55 75 75 67 79 -10 5z"/>
<path d="M1082 610 c-5 -25 -13 -54 -17 -65 -6 -16 -5 -17 4 -5 6 8 16 32 22 54 l10 39 41 -39 c22 -22 53 -57 69 -78 16 -21 29 -34 29 -27 0 6 -33 46 -74 88 l-73 77 -11 -44z"/>
<path d="M3377 465 c3 -33 7 -62 9 -64 7 -8 2 63 -7 94 -5 20 -6 9 -2 -30z"/>
<path d="M1238 421 c-1 -26 0 -61 3 -77 4 -18 7 0 8 49 1 86 -5 103 -11 28z"/>
<path d="M3090 460 c-20 -4 5 -5 55 -2 50 2 92 6 94 8 8 7 -113 2 -149 -6z"/>
<path d="M3279 444 c19 -8 36 -12 39 -9 5 5 -43 25 -61 25 -7 -1 3 -7 22 -16z"/>
<path d="M1460 322 c0 -21 73 -81 135 -112 39 -19 113 -40 214 -60 153 -31 240 -59 262 -86 6 -8 16 -14 21 -14 6 0 6 5 -1 14 -24 29 -133 66 -281 96 -180 36 -261 70 -315 132 -19 23 -35 36 -35 30z"/>
<path d="M1231 295 c-1 -11 -4 -31 -6 -45 l-6 -25 11 25 c6 13 9 33 7 45 -4 19 -4 19 -6 0z"/>
<path d="M2135 173 c4 -10 13 -45 20 -78 7 -33 14 -48 14 -34 1 14 -5 47 -13 72 l-14 46 37 4 c35 3 34 4 -8 5 -37 2 -42 0 -36 -15z"/>
</g>
<g id="layer102" fill="#e0ad2d" stroke="none">
<path d="M695 1763 c-65 -23 -225 -106 -225 -116 0 -2 54 -1 120 1 126 5 217 -7 280 -36 19 -9 49 -19 65 -23 28 -6 28 -6 -10 -8 -181 -7 -339 -96 -385 -217 -19 -51 -28 -134 -14 -134 3 0 19 9 34 20 73 52 179 76 220 50 13 -8 12 -10 -3 -10 -40 0 -70 -131 -48 -209 6 -22 14 -17 126 84 116 103 120 108 126 156 6 43 61 179 72 179 3 0 -1 -21 -9 -47 -8 -25 -14 -77 -14 -115 0 -87 20 -129 94 -191 69 -60 112 -134 153 -267 7 -25 32 30 33 72 0 20 -7 72 -15 115 -8 43 -15 88 -15 100 0 31 48 81 85 88 25 5 27 4 12 -5 -47 -30 -64 -161 -31 -251 9 -27 13 -57 9 -79 -8 -43 -44 -107 -79 -139 l-26 -24 0 49 c0 34 -9 68 -29 109 -52 109 -46 107 -140 41 -69 -49 -81 -61 -75 -79 14 -49 58 -107 143 -191 137 -134 190 -257 178 -419 -4 -67 -4 -68 15 -50 30 27 66 105 84 180 24 103 13 249 -30 378 -4 11 4 -1 18 -27 37 -68 56 -150 56 -244 0 -73 3 -85 28 -120 85 -117 171 -155 432 -194 42 -6 93 -21 118 -35 51 -29 52 -29 52 -12 0 27 -49 114 -86 152 -59 60 -191 145 -203 131 -6 -7 -30 -26 -54 -43 l-43 -31 -1 81 c0 45 -12 147 -27 227 -14 79 -26 180 -26 225 l0 80 -50 61 c-27 34 -90 138 -139 232 -173 328 -259 438 -390 494 -68 29 -88 32 -191 35 -105 3 -122 1 -195 -24z"/>
<path d="M3463 1643 c-13 -2 -37 -25 -55 -51 -224 -332 -603 -628 -929 -726 -112 -33 -235 -56 -338 -61 l-85 -4 -27 -81 c-30 -90 -55 -131 -128 -209 -28 -30 -48 -58 -45 -62 3 -5 33 -28 67 -50 34 -23 78 -57 97 -75 19 -18 52 -40 72 -49 57 -23 162 -19 259 10 153 46 235 60 292 48 29 -6 54 -9 55 -8 2 2 -17 24 -43 48 -54 53 -146 104 -230 129 l-60 18 48 -5 c27 -3 81 -16 120 -31 52 -19 100 -27 173 -31 104 -6 128 -1 354 63 67 19 187 22 218 5 13 -7 26 -10 29 -7 11 10 -30 46 -73 65 -41 19 -171 44 -184 36 -15 -10 -136 62 -157 94 -31 46 -29 60 5 29 15 -14 46 -36 70 -47 40 -21 49 -21 120 -11 106 16 185 55 268 132 68 65 104 88 173 113 l36 14 -36 0 c-20 1 -72 -6 -115 -13 -210 -39 -274 -20 -274 83 0 47 13 76 23 49 3 -10 9 -8 24 5 11 9 45 23 76 29 50 11 70 9 189 -16 337 -70 393 -75 438 -38 21 17 20 17 -24 17 -57 0 -82 23 -135 124 -22 42 -55 90 -73 108 -41 40 -130 80 -197 89 l-51 7 60 28 c85 40 168 53 248 39 35 -6 67 -9 69 -6 8 8 -63 101 -100 132 -58 49 -162 80 -224 67z"/>
<path d="M940 1189 c-29 -24 -32 -31 -20 -39 8 -5 29 -10 45 -10 17 0 50 -9 74 -20 24 -11 46 -19 48 -16 2 2 -11 17 -30 32 -19 16 -42 41 -52 57 -9 15 -20 27 -24 27 -3 -1 -22 -14 -41 -31z"/>
<path d="M866 1110 c-16 -5 -39 -19 -53 -32 -22 -21 -23 -23 -6 -29 10 -4 30 -8 44 -8 14 -1 54 -15 87 -32 l61 -32 40 32 c46 37 48 42 23 64 -45 41 -129 57 -196 37z"/>
<path d="M715 989 c-40 -35 -38 -49 8 -49 18 0 56 -14 86 -30 l55 -30 38 27 c49 33 51 38 38 63 -15 29 -73 50 -136 50 -45 0 -59 -5 -89 -31z"/>
<path d="M602 888 c-49 -39 -51 -48 -13 -48 16 0 54 -13 85 -30 l57 -29 44 31 c25 18 45 36 45 41 0 40 -53 67 -130 67 -39 0 -55 -6 -88 -32z"/>
<path d="M473 769 c-55 -44 -59 -59 -15 -59 15 0 46 -11 69 -24 l42 -24 56 39 c30 22 55 46 55 53 0 27 -41 50 -98 54 -55 4 -59 2 -109 -39z"/>
<path d="M330 635 c-42 -43 -43 -45 -19 -45 13 0 42 -9 63 -21 l38 -20 37 26 c62 44 71 52 71 63 0 22 -45 42 -95 42 -47 0 -54 -3 -95 -45z"/>
<path d="M265 559 c-28 -8 -105 -74 -94 -82 2 -2 23 -10 46 -19 l42 -16 50 34 c56 38 67 52 54 65 -17 17 -67 26 -98 18z"/>
<path d="M98 400 c-43 -45 -61 -80 -41 -80 14 0 163 94 163 102 0 9 -43 28 -62 28 -7 0 -33 -22 -60 -50z"/>
</g>
<g id="layer103" fill="#86c765" stroke="none">
<path d="M695 1763 c-65 -23 -225 -106 -225 -116 0 -2 54 -1 120 1 126 5 217 -7 280 -36 19 -9 49 -19 65 -23 28 -6 28 -6 -10 -8 -181 -7 -339 -96 -385 -217 -19 -51 -28 -134 -14 -134 3 0 19 9 34 20 73 52 179 76 220 50 13 -8 12 -10 -3 -10 -40 0 -70 -131 -48 -209 6 -22 14 -17 126 84 116 103 120 108 126 156 6 43 61 179 72 179 3 0 -1 -21 -9 -47 -8 -25 -14 -77 -14 -115 0 -87 20 -129 94 -191 69 -60 112 -134 153 -267 7 -25 32 30 33 72 0 20 -7 72 -15 115 -8 43 -15 88 -15 100 0 31 48 81 85 88 25 5 27 4 12 -5 -47 -30 -64 -161 -31 -251 9 -27 13 -57 9 -79 -8 -43 -44 -107 -79 -139 l-26 -24 0 49 c0 34 -9 68 -29 109 -52 109 -46 107 -140 41 -69 -49 -81 -61 -75 -79 14 -49 58 -107 143 -191 137 -134 190 -257 178 -419 -4 -67 -4 -68 15 -50 11 10 31 39 44 65 66 131 70 303 10 493 -4 11 7 -7 24 -41 37 -74 63 -202 55 -265 -5 -42 -2 -50 34 -95 45 -57 127 -116 190 -139 44 -15 126 -29 231 -40 32 -3 79 -18 111 -34 l56 -29 -13 45 c-7 24 -27 62 -45 84 -31 39 -110 109 -123 109 -4 0 -25 14 -46 31 l-39 32 -27 -19 c-15 -11 -42 -30 -62 -42 l-35 -24 7 45 c5 32 -2 98 -24 224 -18 101 -32 215 -32 265 l-1 86 -42 46 c-44 49 -48 56 -159 271 -151 292 -248 413 -375 467 -68 29 -88 32 -191 35 -105 3 -122 1 -195 -24z"/>
<path d="M923 849 c-18 -12 -33 -22 -33 -24 0 -1 16 -29 35 -61 20 -32 43 -83 51 -114 9 -30 19 -62 21 -70 4 -12 6 -11 15 4 6 11 8 46 5 85 -6 67 -42 201 -55 201 -4 0 -22 -10 -39 -21z"/>
</g>
<g id="layer104" fill="#f7a059" stroke="none">
<path d="M3463 1643 c-13 -2 -37 -25 -55 -51 -224 -332 -603 -628 -929 -726 -112 -33 -235 -56 -338 -61 l-85 -4 -27 -81 c-31 -93 -60 -140 -130 -212 -42 -43 -48 -54 -36 -62 8 -6 41 -29 72 -51 32 -22 78 -57 103 -78 25 -21 56 -43 69 -48 60 -22 166 -7 358 53 22 7 79 13 127 13 47 0 84 3 81 8 -2 4 -21 16 -41 28 -20 11 -29 18 -19 15 14 -4 16 -2 9 10 -9 16 -33 32 -92 60 -19 9 -44 21 -55 27 -11 6 -40 16 -65 23 -66 18 -12 17 68 -2 37 -8 76 -20 87 -26 29 -16 57 -20 168 -23 54 -1 100 2 103 7 3 5 14 6 24 3 10 -3 21 -1 25 5 3 6 11 8 16 4 5 -3 16 -1 23 5 7 6 30 13 50 16 21 2 45 10 52 16 8 7 28 12 44 11 16 0 32 2 34 6 2 4 43 7 90 6 50 -1 89 3 93 9 4 6 0 8 -10 4 -10 -4 -14 -2 -11 6 2 7 -14 19 -38 29 -44 18 -166 41 -177 33 -16 -10 -137 62 -158 94 -31 46 -29 60 5 29 15 -14 46 -36 70 -47 40 -21 49 -21 120 -11 106 16 185 55 268 132 68 65 104 88 173 113 l36 14 -36 0 c-20 1 -72 -6 -115 -13 -210 -39 -274 -20 -274 83 0 47 13 76 23 49 3 -10 9 -8 24 5 11 9 45 23 76 29 50 11 70 9 189 -16 337 -70 393 -75 438 -38 21 17 20 17 -24 17 -57 0 -82 23 -135 124 -22 42 -55 90 -73 108 -41 40 -130 80 -197 89 l-51 7 60 28 c85 40 168 53 248 39 35 -6 67 -9 69 -6 8 8 -63 101 -100 132 -58 49 -162 80 -224 67z m-658 -993 c15 -6 9 -9 -25 -9 -34 0 -40 3 -25 9 11 5 22 9 25 9 3 0 14 -4 25 -9z m-665 -250 c-33 -11 -110 -12 -110 -2 0 5 30 9 68 10 48 0 60 -2 42 -8z"/>
<path d="M1459 1107 c-53 -36 -58 -63 -24 -159 25 -75 29 -101 35 -278 5 -107 6 -206 3 -220 -10 -53 122 -178 226 -215 44 -15 126 -29 231 -40 32 -3 79 -18 111 -34 l56 -29 -13 45 c-7 24 -27 62 -45 84 -31 39 -110 109 -123 109 -4 0 -25 14 -46 31 l-39 32 -27 -19 c-15 -11 -42 -30 -62 -42 l-35 -24 7 45 c5 32 -2 98 -24 224 -18 101 -32 215 -32 265 l-1 86 -43 48 c-24 26 -50 62 -59 81 -19 40 -47 43 -96 10z m44 -43 c-41 -18 -47 -40 -28 -112 21 -81 19 -106 -5 -54 -55 120 -39 181 45 181 15 -1 11 -4 -12 -15z m68 -66 c-5 -13 -12 -32 -15 -42 -4 -10 -9 -16 -12 -14 -6 6 22 78 30 78 3 0 2 -10 -3 -22z m-43 -283 c0 -22 -4 -53 -8 -70 -5 -21 -8 -2 -8 60 0 59 2 83 8 70 5 -11 8 -38 8 -60z m57 -250 c9 -22 12 -35 6 -30 -5 6 -17 28 -26 50 -9 22 -12 36 -7 30 6 -5 18 -28 27 -50z m7 -113 c8 -11 5 -10 -11 3 -29 24 -61 90 -61 125 1 17 10 3 30 -43 16 -38 35 -76 42 -85z"/>
<path d="M955 1092 c-19 -13 -14 -78 7 -91 15 -10 24 -8 48 9 17 12 35 18 41 14 7 -4 9 -3 5 4 -3 6 -2 13 4 17 17 10 11 25 -9 25 -11 0 -21 4 -23 9 -4 12 -61 23 -73 13z"/>
<path d="M823 994 c-19 -8 -16 -27 3 -20 15 6 15 4 3 -10 -21 -26 -21 -52 2 -64 15 -8 24 -8 34 0 8 7 20 8 26 4 8 -4 9 -3 5 4 -4 6 5 19 19 28 31 20 32 34 3 34 -19 0 -20 2 -8 10 13 8 13 10 -1 10 -9 0 -29 2 -45 5 -16 2 -35 2 -41 -1z"/>
<path d="M679 894 c-12 -15 -11 -16 10 -9 l23 7 -22 -22 c-30 -30 -19 -35 21 -11 19 12 42 21 52 21 9 0 17 5 17 11 0 7 -12 10 -29 7 -17 -2 -28 -1 -25 4 10 15 -34 8 -47 -8z"/>
<path d="M745 864 c-39 -13 -73 -39 -63 -49 9 -10 69 -24 63 -16 -2 5 13 20 35 35 22 14 40 28 40 30 0 11 -42 12 -75 0z"/>
<path d="M552 788 c-19 -19 -14 -30 7 -18 35 18 35 11 1 -12 -41 -28 -47 -55 -15 -70 19 -9 30 -5 69 21 41 28 44 34 33 51 -6 11 -20 20 -30 20 -10 0 -15 5 -12 10 9 14 -39 12 -53 -2z"/>
<path d="M405 651 c-28 -12 -55 -45 -47 -57 4 -6 16 -16 28 -22 18 -9 29 -6 67 21 51 35 58 47 26 47 -11 0 -17 5 -14 10 7 12 -31 12 -60 1z"/>
<path d="M254 531 c-18 -11 -35 -24 -39 -31 -8 -13 12 -40 31 -40 16 0 114 60 114 70 0 6 -48 20 -69 20 -3 0 -20 -9 -37 -19z"/>
<path d="M145 420 c-23 -9 -81 -68 -74 -74 7 -7 122 59 127 72 4 14 -23 15 -53 2z"/>
</g>
<g id="layer105" fill="#47c5ef" stroke="none">
<path d="M695 1763 c-65 -23 -225 -106 -225 -116 0 -2 54 -1 120 1 126 5 217 -7 280 -36 19 -9 49 -19 65 -23 28 -6 28 -6 -10 -8 -58 -2 -163 -26 -218 -50 -108 -47 -192 -167 -185 -265 l3 -41 17 36 c25 57 83 114 141 140 44 20 68 24 157 24 58 0 119 -3 136 -7 29 -7 33 -4 49 33 26 56 36 58 19 2 -8 -25 -14 -77 -14 -115 0 -87 20 -129 93 -191 62 -53 100 -112 133 -205 12 -36 25 -59 29 -52 14 22 -7 127 -57 280 -59 183 -68 239 -43 263 25 26 64 31 124 19 30 -7 56 -10 57 -9 8 8 -103 166 -152 218 -43 45 -73 65 -133 91 -68 29 -88 32 -191 35 -105 3 -122 1 -195 -24z m564 -263 c-26 -4 -57 -13 -69 -20 -17 -9 -21 -9 -15 0 11 18 46 29 90 28 l40 0 -46 -8z m-291 -30 c12 -6 -15 -10 -88 -10 -58 0 -116 -3 -130 -7 -45 -11 -11 10 37 23 51 15 152 11 181 -6z m162 -155 c0 -11 9 -43 19 -72 20 -60 8 -60 -20 1 -19 43 -27 134 -9 106 5 -8 10 -24 10 -35z"/>
<path d="M3463 1643 c-13 -2 -37 -25 -55 -51 -107 -159 -270 -331 -420 -444 l-70 -53 4 -55 c6 -89 102 -254 164 -282 32 -15 147 23 296 98 62 31 129 62 148 69 l35 14 -36 0 c-20 1 -72 -6 -115 -13 -210 -39 -274 -20 -274 83 0 47 13 76 23 49 3 -10 9 -8 24 5 11 9 45 23 76 29 50 11 70 9 189 -16 337 -70 393 -75 438 -38 21 17 20 17 -24 17 -57 0 -82 23 -135 124 -22 42 -55 90 -73 108 -41 40 -130 80 -197 89 l-51 7 60 28 c85 40 168 53 248 39 35 -6 67 -9 69 -6 8 8 -63 101 -100 132 -58 49 -162 80 -224 67z m-462 -641 c10 -29 14 -50 10 -47 -11 6 -41 93 -40 114 1 19 2 17 30 -67z m154 -197 c12 -5 15 -9 8 -12 -20 -7 -79 16 -99 38 l-19 21 45 -20 c25 -11 54 -24 65 -27z"/>
<path d="M1263 1405 c-13 -9 -28 -26 -34 -37 l-12 -21 28 21 c22 18 41 22 93 22 50 0 63 3 55 11 -20 20 -105 22 -130 4z"/>
<path d="M713 1379 c-38 -11 -59 -36 -22 -26 13 4 71 7 129 8 101 1 104 2 65 14 -46 16 -126 17 -172 4z"/>
<path d="M1303 1308 c-24 -27 -46 -68 -40 -74 2 -3 15 12 28 33 13 21 27 44 32 51 13 19 2 14 -20 -10z"/>
<path d="M818 1313 c12 -2 32 -2 45 0 12 2 2 4 -23 4 -25 0 -35 -2 -22 -4z"/>
</g>
<g id="layer106" fill="#db81ae" stroke="none">
<path d="M1750 3946 c0 -1 42 -45 93 -97 137 -142 222 -308 270 -529 28 -130 30 -362 4 -436 -33 -95 -125 -178 -231 -209 l-58 -17 48 -50 c91 -93 157 -135 268 -169 287 -86 365 -138 409 -274 27 -82 30 -161 14 -285 -9 -63 -18 -146 -21 -185 -3 -38 -12 -90 -19 -115 l-15 -45 6 75 c2 41 2 73 -1 70 -3 -3 -28 -40 -56 -83 -28 -42 -53 -77 -57 -77 -4 0 -1 6 5 14 21 25 79 153 99 217 43 141 36 262 -22 384 -65 136 -139 191 -321 240 -123 33 -222 84 -286 146 -94 91 -178 250 -216 406 -9 37 -18 74 -20 82 -3 11 -7 10 -18 -5 -12 -16 -12 -12 0 30 18 59 20 223 4 277 -16 50 -58 90 -108 99 -22 4 -43 5 -45 2 -3 -2 6 -26 19 -53 34 -67 31 -82 -5 -27 -34 51 -82 91 -135 114 -47 19 -59 18 -94 -12 -35 -29 -39 -59 -16 -104 15 -29 35 -40 35 -20 0 6 11 15 25 22 13 6 22 15 19 19 -3 5 5 9 16 9 88 0 180 -138 180 -270 0 -115 -115 -171 -253 -124 -93 32 -134 91 -285 415 -17 36 -40 73 -50 82 -27 24 -73 31 -97 14 -19 -14 -18 -16 17 -30 30 -13 88 -72 88 -90 0 -4 -16 5 -36 18 -64 44 -150 31 -247 -37 -39 -28 -62 -75 -49 -102 6 -11 13 -30 17 -41 5 -18 4 -17 -19 4 -47 45 -69 15 -81 -112 -9 -104 1 -171 32 -207 26 -32 69 -40 91 -18 15 15 16 0 2 -38 -22 -57 91 -384 226 -653 40 -80 63 -134 50 -118 -27 34 -32 34 -51 -3 -20 -39 -19 -75 6 -156 23 -74 31 -84 69 -84 48 -1 196 -61 263 -107 89 -60 129 -115 215 -293 66 -136 182 -313 240 -364 21 -18 22 -18 55 7 18 14 50 30 72 36 41 11 40 10 -16 -32 -57 -41 -79 -97 -79 -198 0 -75 9 -159 26 -242 12 -57 23 -9 30 123 4 85 12 147 21 167 17 36 61 68 108 78 l30 6 -30 -14 c-46 -21 -83 -71 -90 -120 -9 -65 -25 -390 -19 -396 9 -9 85 74 131 142 25 38 59 101 75 140 27 64 30 79 26 154 -3 57 -1 82 6 80 17 -6 36 -49 36 -84 0 -31 1 -32 57 -39 97 -12 217 3 332 42 119 39 333 147 460 231 222 148 461 444 626 778 l40 80 0 130 c-1 117 -4 137 -29 203 -41 109 -151 312 -168 312 -5 0 -8 -12 -8 -27 0 -45 -36 -168 -68 -238 -42 -88 -83 -146 -170 -237 -76 -79 -105 -97 -59 -36 14 18 40 65 60 103 121 243 162 527 103 710 -40 127 -130 259 -228 336 l-41 33 7 -38 c13 -68 8 -268 -9 -355 -19 -96 -66 -233 -96 -276 -14 -20 -19 -23 -15 -10 36 137 44 500 13 645 -22 102 -61 190 -111 247 -134 154 -485 327 -868 428 -71 18 -128 32 -128 31z m-1149 -914 c11 -113 7 -144 -20 -128 -15 10 -14 27 2 24 15 -4 15 5 -2 60 -9 31 -9 52 -2 73 8 22 7 32 -5 43 -15 16 -18 38 -7 50 15 14 22 -14 34 -122z m346 99 c6 -3 -8 -6 -32 -6 -140 0 -168 -231 -41 -343 55 -48 153 -56 197 -16 23 21 25 5 4 -35 -37 -72 -148 -49 -249 52 -75 75 -102 165 -76 257 11 39 63 95 95 103 22 5 83 -2 102 -12z m60 -126 c25 -28 53 -113 53 -157 0 -35 -32 -68 -65 -68 -25 0 -85 25 -85 36 0 2 9 0 20 -6 25 -14 72 -9 77 7 3 6 -8 13 -23 15 -43 5 -69 49 -69 119 0 32 -1 59 -3 59 -1 0 -14 -8 -29 -17 l-26 -17 13 24 c19 36 30 41 75 36 27 -3 47 -13 62 -31z m523 -79 c-23 -72 -105 -116 -187 -101 -42 7 -112 45 -134 71 -8 10 5 5 28 -11 46 -30 110 -42 168 -31 39 8 110 65 120 98 4 11 9 17 12 14 3 -2 0 -20 -7 -40z m-479 -555 c61 -177 71 -230 24 -125 -58 129 -106 284 -104 334 0 21 13 -11 80 -209z m241 -292 c-44 -22 -82 -62 -82 -85 0 -8 -4 -14 -10 -14 -16 0 -12 66 5 80 19 16 84 39 110 40 12 0 4 -8 -23 -21z m201 12 c13 -5 37 -23 53 -40 16 -17 38 -31 50 -31 26 0 78 -39 111 -82 43 -58 65 -110 83 -198 l17 -85 54 -32 c30 -18 46 -33 37 -33 -38 0 -133 45 -184 86 -30 24 -54 41 -54 37 0 -20 29 -112 43 -140 21 -39 65 -74 138 -108 l54 -26 -58 6 c-71 7 -104 22 -145 70 -55 62 -81 128 -117 301 -27 128 -51 182 -98 218 -50 39 -97 35 -147 -10 -27 -25 -38 -31 -34 -18 25 70 124 113 197 85z m168 -46 c96 -34 159 -117 179 -236 15 -87 1 -114 -16 -32 -25 123 -90 218 -179 262 -48 24 -43 26 16 6z m-239 -473 c18 -26 56 -71 84 -99 29 -29 50 -53 48 -53 -3 0 -25 13 -49 30 -63 43 -122 115 -145 176 -28 75 -25 99 5 41 14 -27 39 -70 57 -95z"/>
<path d="M1603 1950 c9 -34 15 -40 37 -40 35 0 50 -17 50 -56 0 -22 -7 -36 -22 -46 l-22 -15 41 -49 c49 -59 81 -89 88 -82 6 6 -18 99 -45 172 -14 37 -39 76 -69 107 -59 61 -72 63 -58 9z"/>
<path d="M980 3465 c0 -4 7 -19 15 -35 14 -27 21 -30 61 -30 54 0 55 13 4 48 -30 20 -80 30 -80 17z"/>
<path d="M1043 3382 c-8 -5 -1 -28 24 -80 33 -69 36 -72 69 -72 31 0 34 3 34 29 0 87 -73 158 -127 123z"/>
<path d="M1314 3316 c-18 -14 -18 -16 -2 -33 12 -11 34 -17 63 -18 25 0 45 2 45 4 0 3 -12 18 -27 33 -30 31 -50 35 -79 14z"/>
<path d="M1243 3239 c-39 -25 -42 -39 -9 -39 24 0 76 34 76 51 0 16 -33 10 -67 -12z"/>
<path d="M1318 3221 c-39 -35 -36 -40 54 -90 l57 -32 21 21 c24 24 26 60 5 100 -14 26 -21 30 -60 30 -35 0 -52 -6 -77 -29z"/>
<path d="M1116 3198 c11 -36 53 -116 64 -123 11 -7 14 102 4 129 -4 10 -18 16 -41 16 -31 0 -34 -2 -27 -22z"/>
<path d="M1230 3157 c0 -18 32 -47 53 -47 27 0 28 16 2 38 -28 25 -55 29 -55 9z"/>
<path d="M1306 3088 c-14 -19 -13 -24 2 -51 9 -16 23 -31 30 -34 16 -7 52 3 76 20 26 19 7 52 -41 72 -46 19 -49 19 -67 -7z"/>
<path d="M1447 3092 c-18 -20 -22 -42 -9 -42 10 0 35 50 29 56 -2 2 -11 -4 -20 -14z"/>
<path d="M597 1653 c18 -2 50 -2 70 0 21 2 7 4 -32 4 -38 0 -55 -2 -38 -4z"/>
<path d="M3430 1470 l-25 -8 25 -1 c14 0 32 4 40 9 13 9 13 10 0 9 -8 -1 -26 -5 -40 -9z"/>
<path d="M3320 1430 c-21 -7 -19 -8 15 -8 22 0 51 4 65 8 21 7 19 8 -15 8 -22 0 -51 -4 -65 -8z"/>
<path d="M3300 1360 c14 -4 45 -8 70 -8 40 0 42 1 15 8 -16 4 -48 8 -70 8 -34 0 -36 -1 -15 -8z"/>
<path d="M3203 1339 c-9 -12 -1 -14 46 -15 32 -1 66 -6 77 -12 15 -9 2 -11 -63 -12 -46 0 -85 0 -88 0 -3 1 -40 -29 -81 -65 -41 -36 -98 -82 -126 -103 l-50 -37 4 -55 c6 -90 102 -254 164 -282 32 -15 147 23 296 98 62 31 129 62 148 69 l35 14 -36 0 c-20 1 -72 -6 -115 -13 -210 -39 -274 -20 -274 83 0 47 13 76 23 49 3 -10 9 -8 24 5 11 9 45 23 76 29 50 11 70 9 189 -16 339 -70 393 -75 439 -37 22 18 22 18 -31 15 -93 -6 -181 46 -257 153 -28 39 -60 71 -84 83 -85 44 -294 76 -316 49z m265 -44 c45 -19 73 -45 121 -110 55 -73 57 -79 33 -66 -11 6 -44 38 -73 72 -29 33 -71 74 -93 90 -45 33 -42 36 12 14z m-48 -52 c13 -13 11 -13 -15 -2 -40 17 -57 33 -25 24 14 -4 32 -14 40 -22z m-419 -241 c10 -29 14 -50 10 -47 -11 6 -41 93 -40 114 1 19 2 17 30 -67z m154 -197 c12 -5 15 -9 8 -12 -20 -7 -79 16 -99 38 l-19 21 45 -20 c25 -11 54 -24 65 -27z"/>
<path d="M3617 1239 c34 -35 65 -61 68 -58 7 7 -81 96 -109 110 -11 6 7 -17 41 -52z"/>
<path d="M2828 1035 c-12 -12 5 -81 28 -117 29 -45 41 -50 19 -8 -8 16 -21 52 -28 80 -7 28 -16 48 -19 45z"/>
<path d="M2885 1003 c8 -46 46 -125 63 -131 7 -2 1 19 -13 50 -14 29 -28 68 -31 86 -9 45 -26 40 -19 -5z"/>
<path d="M819 983 c-12 -15 -12 -16 5 -10 17 7 17 6 5 -10 -12 -15 -12 -16 4 -10 44 17 49 16 15 -3 -43 -23 -48 -37 -16 -49 17 -6 32 -1 65 22 47 34 54 47 22 47 -11 0 -18 4 -15 9 3 5 -8 11 -25 15 -43 8 -45 8 -60 -11z"/>
<path d="M2990 775 c0 -5 12 -22 27 -37 20 -21 36 -28 62 -28 l36 1 -38 14 c-22 7 -50 23 -63 36 -13 12 -24 19 -24 14z"/>
</g>
<g id="layer107" fill="#fde464" stroke="none">
<path d="M1462 1163 c-13 -3 -41 -22 -63 -44 -35 -35 -39 -44 -38 -86 l1 -48 10 35 c14 50 53 97 99 120 54 28 52 35 -9 23z"/>
<path d="M1459 1107 c-53 -36 -58 -63 -25 -159 26 -76 29 -101 37 -293 5 -115 11 -220 14 -233 7 -29 79 -108 125 -137 74 -46 179 -75 326 -89 28 -3 73 -16 100 -30 27 -14 50 -21 52 -16 5 15 -47 112 -76 143 -22 24 -62 53 -177 129 -6 3 -37 -14 -69 -38 -32 -25 -61 -43 -63 -40 -2 2 1 22 8 45 9 31 9 54 0 98 -40 203 -54 300 -56 387 l-3 98 -42 47 c-24 25 -49 61 -57 79 -16 39 -45 42 -94 9z m44 -43 c-41 -18 -47 -40 -28 -112 21 -81 19 -106 -5 -54 -55 120 -39 181 45 181 15 -1 11 -4 -12 -15z m68 -66 c-5 -13 -12 -32 -15 -42 -4 -10 -9 -16 -12 -14 -6 6 22 78 30 78 3 0 2 -10 -3 -22z m-43 -283 c0 -22 -4 -53 -8 -70 -5 -21 -8 -2 -8 60 0 59 2 83 8 70 5 -11 8 -38 8 -60z m57 -250 c9 -22 12 -35 6 -30 -5 6 -17 28 -26 50 -9 22 -12 36 -7 30 6 -5 18 -28 27 -50z m7 -113 c8 -11 5 -10 -11 3 -29 24 -61 90 -61 125 1 17 10 3 30 -43 16 -38 35 -76 42 -85z"/>
<path d="M957 1094 c-4 -4 -7 -16 -7 -27 0 -13 5 -17 15 -13 41 17 46 15 13 -4 -44 -24 -47 -33 -15 -47 18 -9 29 -5 64 20 43 31 47 47 12 47 -11 0 -17 5 -14 10 3 6 -3 10 -14 10 -10 0 -26 2 -33 5 -8 3 -17 2 -21 -1z"/>
<path d="M819 983 c-12 -15 -12 -16 5 -10 17 7 17 6 5 -10 -12 -15 -12 -16 4 -10 44 17 49 16 15 -3 -44 -24 -47 -33 -16 -47 18 -8 30 -4 65 21 47 33 54 46 22 46 -11 0 -18 4 -15 9 3 5 -8 11 -25 15 -43 8 -45 8 -60 -11z"/>
<path d="M1391 930 c0 -20 47 -119 48 -100 0 8 -10 38 -23 65 -14 28 -25 43 -25 35z"/>
<path d="M680 895 c-16 -19 -3 -19 30 0 24 13 24 14 4 15 -12 0 -27 -7 -34 -15z"/>
<path d="M725 890 c-46 -18 -60 -76 -20 -86 23 -6 105 39 105 57 0 15 -64 10 -88 -7 -13 -9 -26 -14 -29 -11 -7 7 52 37 72 37 9 0 13 5 10 10 -7 12 -22 12 -50 0z"/>
<path d="M2455 813 c12 -66 44 -126 91 -169 33 -31 51 -41 67 -37 12 2 28 5 35 5 22 2 12 14 -23 27 -43 15 -98 79 -133 153 -31 66 -47 75 -37 21z"/>
<path d="M2290 815 c-36 -7 -102 -13 -147 -14 l-82 -1 -16 -57 c-27 -92 -64 -154 -131 -221 -35 -35 -64 -65 -64 -67 0 -1 30 -22 67 -46 37 -24 89 -63 115 -86 85 -75 176 -79 371 -16 65 22 102 27 180 28 109 0 110 7 8 46 -96 36 -199 50 -386 55 -168 4 -225 13 -225 36 0 5 11 6 25 4 14 -3 25 -1 25 4 0 4 9 6 20 3 11 -3 20 -1 20 5 0 6 8 9 18 7 9 -1 22 0 27 4 6 3 19 7 30 9 29 5 50 10 50 12 0 1 14 3 30 5 17 2 41 6 55 9 14 3 36 8 50 12 36 8 54 12 60 14 3 1 9 2 14 1 4 -1 15 4 24 11 10 8 13 9 9 1 -5 -7 -1 -9 12 -6 16 4 11 12 -30 53 -27 27 -49 53 -49 59 0 5 22 -5 50 -24 47 -32 147 -72 156 -63 2 3 -18 19 -45 36 -51 31 -136 135 -147 178 -3 13 -11 23 -18 23 -6 -1 -40 -7 -76 -14z m-275 -390 c39 -8 90 -15 115 -16 38 -1 41 -2 20 -9 -64 -20 -210 1 -210 31 0 11 -8 12 75 -6z"/>
<path d="M554 784 c-18 -15 -18 -15 11 -9 l30 6 -32 -20 c-36 -22 -44 -37 -15 -27 16 6 16 5 0 -8 -23 -17 -23 -23 2 -36 17 -9 28 -5 65 20 40 27 43 33 32 50 -6 11 -20 20 -29 20 -10 0 -18 5 -18 10 0 15 -24 12 -46 -6z"/>
<path d="M2626 700 c12 -12 27 -21 33 -19 7 3 -3 13 -21 23 l-33 19 21 -23z"/>
<path d="M1373 633 c4 -21 9 -82 13 -136 8 -112 25 -118 25 -8 0 66 -24 181 -38 181 -3 0 -3 -17 0 -37z"/>
<path d="M394 641 c-33 -20 -52 -41 -37 -41 5 0 14 4 21 10 7 5 5 2 -3 -7 -14 -16 -13 -18 7 -29 19 -10 29 -7 70 20 55 36 59 46 21 46 -22 0 -25 2 -13 10 30 19 -34 11 -66 -9z"/>
<path d="M254 531 c-18 -11 -35 -24 -38 -29 -7 -11 19 -42 35 -42 8 0 83 47 108 67 8 6 -4 11 -39 17 -25 5 -44 1 -66 -13z"/>
<path d="M2166 491 c5 -4 30 -16 56 -26 53 -20 141 -17 161 5 10 10 7 11 -14 6 -14 -3 -64 1 -110 9 -99 18 -106 18 -93 6z"/>
<path d="M2468 443 c12 -2 30 -2 40 0 9 3 -1 5 -23 4 -22 0 -30 -2 -17 -4z"/>
<path d="M135 411 c-33 -20 -71 -59 -64 -66 7 -6 129 65 129 76 0 15 -33 10 -65 -10z"/>
</g>
<g id="layer108" fill="#f9c8dd" stroke="none">
<path d="M1806 3896 c115 -102 218 -270 274 -444 46 -142 62 -257 58 -407 -3 -124 -5 -134 -36 -197 -21 -43 -48 -80 -75 -102 -46 -38 -141 -86 -169 -86 -10 0 -18 -4 -18 -9 0 -12 117 -116 172 -153 41 -27 61 -34 153 -60 220 -61 330 -129 381 -236 23 -47 28 -75 32 -161 3 -57 0 -133 -7 -170 -6 -36 -13 -102 -15 -146 -2 -44 -12 -107 -22 -140 l-19 -60 -3 68 -3 69 -38 -59 c-21 -32 -46 -65 -56 -73 -16 -13 -16 -11 2 25 34 67 47 151 47 300 0 172 -17 227 -93 298 -61 57 -100 77 -231 117 -128 39 -188 69 -234 115 -63 62 -225 353 -285 509 -27 70 -27 72 -10 116 51 135 23 259 -77 335 l-33 25 20 -57 c11 -32 18 -67 16 -78 -2 -14 -7 -7 -15 21 -25 87 -139 194 -206 194 -49 0 -76 -25 -76 -69 0 -20 6 -45 13 -55 12 -16 14 -16 26 -2 8 9 21 16 30 16 14 0 14 2 1 10 -11 7 -2 10 32 10 59 0 102 -34 141 -113 57 -118 60 -191 7 -250 -38 -43 -93 -60 -173 -52 -150 16 -162 27 -271 251 -94 194 -115 224 -169 253 -35 19 -30 7 9 -17 13 -9 64 -76 64 -85 0 -4 -21 7 -47 23 -53 34 -103 39 -160 15 -50 -21 -101 -61 -123 -97 -16 -26 -16 -33 -4 -56 8 -15 14 -36 14 -46 0 -19 -1 -18 -23 2 -28 27 -52 28 -62 5 -4 -10 -9 -72 -12 -138 -5 -136 9 -182 59 -199 23 -8 32 -6 54 15 l26 24 -8 -30 c-3 -16 -10 -36 -14 -44 -23 -44 143 -509 249 -696 16 -27 39 -68 51 -90 l22 -40 -35 39 c-30 34 -37 38 -51 27 -22 -18 -21 -120 2 -186 16 -46 20 -50 57 -57 22 -3 74 -18 115 -33 188 -68 254 -133 368 -365 77 -155 144 -259 227 -352 l37 -40 21 20 c33 30 86 54 110 50 20 -3 19 -5 -9 -20 -72 -39 -114 -115 -114 -208 0 -34 18 -187 31 -270 0 -3 4 4 9 15 5 11 9 72 9 135 1 100 4 120 24 155 28 49 80 85 121 84 l31 -1 -30 -13 c-16 -7 -43 -26 -58 -42 -35 -37 -44 -91 -52 -313 l-6 -165 41 45 c60 66 135 181 161 247 24 61 30 141 15 206 -6 25 -5 37 3 37 23 0 50 -40 56 -83 l7 -45 66 -6 c142 -14 311 28 507 126 150 75 232 123 315 184 86 63 252 232 286 291 15 27 60 102 101 167 121 198 169 350 160 511 -6 112 -33 196 -95 303 l-49 84 -17 -54 c-26 -79 -81 -184 -138 -260 -47 -64 -162 -178 -179 -178 -4 0 12 39 35 88 179 366 200 669 66 921 -30 55 -123 171 -138 171 -4 0 -8 -64 -8 -143 -2 -167 -27 -280 -93 -423 -42 -88 -59 -107 -41 -43 18 62 23 204 10 305 -23 191 -103 453 -165 542 -87 127 -445 325 -825 457 -36 13 -74 26 -85 30 -11 4 3 -14 31 -39z m-1213 -758 c4 -13 9 -71 13 -129 5 -82 4 -108 -6 -114 -14 -9 -40 19 -40 43 0 12 2 12 17 1 15 -13 15 -11 8 16 -5 17 -8 59 -7 95 1 59 -1 63 -14 46 -12 -17 -14 -17 -14 -4 0 25 18 68 29 68 5 0 11 -10 14 -22z m372 -12 c30 -20 27 -33 -3 -17 -33 17 -87 13 -115 -9 -68 -54 -65 -222 6 -298 63 -67 183 -77 230 -19 l19 22 -6 -35 c-7 -44 -56 -90 -94 -90 -43 0 -132 49 -184 101 -37 37 -51 61 -68 118 -19 63 -21 78 -10 119 13 53 51 109 84 123 31 13 111 5 141 -15z m19 -96 c56 -21 100 -187 61 -230 -25 -27 -83 -26 -125 3 -19 12 -35 28 -38 36 -3 9 6 6 24 -7 27 -20 50 -26 84 -23 8 1 1 10 -18 21 -39 24 -76 98 -70 141 5 29 -1 29 -36 0 -18 -15 -18 -15 -11 9 17 56 65 75 129 50z m544 -118 c-31 -64 -76 -92 -145 -92 -65 0 -117 20 -160 62 -40 39 -44 62 -5 26 35 -33 58 -44 108 -53 85 -13 177 42 206 124 13 36 13 36 16 8 2 -16 -7 -49 -20 -75z m-468 -549 c44 -128 80 -236 80 -240 0 -10 -106 170 -142 242 -33 64 -68 213 -67 285 l0 45 25 -50 c14 -27 61 -155 104 -282z m457 -281 c16 -11 35 -28 42 -36 7 -8 25 -18 41 -21 83 -18 177 -160 201 -302 l11 -70 67 -37 66 -37 -85 3 c-65 2 -95 8 -127 25 -46 24 -52 19 -29 -25 28 -54 126 -121 178 -122 9 0 20 -5 24 -12 5 -8 -15 -10 -78 -6 -127 8 -221 57 -253 133 -7 17 -23 84 -35 150 -12 65 -33 154 -46 197 -28 89 -56 118 -115 118 -30 0 -42 -6 -63 -32 -14 -18 -26 -27 -26 -20 0 26 32 73 63 92 39 24 26 25 -36 4 -43 -15 -107 -71 -107 -94 0 -21 -20 -9 -26 15 -16 65 69 105 217 101 69 -2 92 -7 116 -24z m161 -37 c50 -21 108 -79 140 -140 20 -39 26 -69 30 -138 3 -58 1 -92 -7 -100 -8 -8 -11 0 -11 31 0 140 -83 285 -195 338 -44 21 -46 24 -22 24 15 0 44 -7 65 -15z m-177 -557 c48 -49 85 -88 82 -88 -17 0 -126 76 -155 108 -45 50 -88 139 -95 194 -5 41 -3 40 38 -42 34 -65 64 -105 130 -172z"/>
<path d="M1604 1955 c8 -26 16 -35 33 -35 29 0 63 -33 63 -60 0 -12 -11 -32 -24 -45 l-24 -24 49 -58 c78 -91 85 -84 44 44 -27 87 -68 158 -110 191 -38 30 -44 28 -31 -13z"/>
<path d="M980 3463 c1 -24 39 -51 80 -57 l45 -7 -30 30 c-28 28 -95 52 -95 34z"/>
<path d="M1040 3370 c0 -6 13 -37 29 -69 28 -55 47 -70 89 -71 20 0 14 61 -11 105 -20 36 -27 40 -65 43 -25 2 -42 -1 -42 -8z"/>
<path d="M1238 3230 c-31 -28 -32 -29 -10 -30 26 0 84 39 76 52 -10 16 -34 8 -66 -22z"/>
<path d="M1364 3243 c-17 -2 -42 -15 -55 -29 l-24 -25 25 -19 c14 -10 47 -29 74 -42 l48 -22 20 24 c32 39 2 123 -41 118 -9 0 -30 -3 -47 -5z"/>
<path d="M1118 3193 c5 -10 19 -39 31 -65 13 -27 27 -48 32 -48 10 0 12 89 3 114 -4 10 -18 16 -40 16 -30 0 -33 -3 -26 -17z"/>
<path d="M1230 3157 c0 -18 32 -47 52 -47 27 0 27 12 -1 36 -32 27 -51 31 -51 11z"/>
<path d="M1317 3092 c-23 -25 -21 -45 7 -71 17 -16 30 -20 49 -16 59 15 59 61 2 88 -43 21 -38 21 -58 -1z"/>
<path d="M1441 3086 c-8 -9 -11 -19 -7 -23 9 -9 29 13 24 27 -2 8 -8 7 -17 -4z"/>
<path d="M958 1083 c10 -4 10 -8 2 -18 -10 -12 -6 -12 19 -2 40 15 39 22 -2 23 -17 1 -26 -1 -19 -3z"/>
<path d="M995 1056 c-17 -7 -36 -20 -43 -29 -12 -14 -11 -17 10 -22 17 -4 37 2 66 21 59 39 36 60 -33 30z"/>
<path d="M820 985 c-9 -11 -9 -15 -1 -15 7 0 9 -5 6 -11 -4 -5 10 -3 31 6 64 26 56 34 -11 10 -20 -7 -20 -6 -1 9 16 13 17 16 4 16 -8 0 -21 -7 -28 -15z"/>
<path d="M875 959 c-16 -5 -39 -16 -50 -25 -17 -13 -18 -16 -5 -24 22 -14 34 -12 70 13 51 33 42 53 -15 36z"/>
<path d="M685 899 c-11 -17 0 -20 21 -4 17 13 17 14 2 15 -9 0 -20 -5 -23 -11z"/>
<path d="M699 870 c-13 -10 -19 -19 -12 -20 6 0 15 4 18 10 3 5 20 14 38 19 30 9 31 9 6 10 -15 1 -37 -8 -50 -19z"/>
<path d="M716 846 c-39 -23 -39 -24 -17 -35 19 -10 29 -8 66 16 25 15 45 31 45 36 0 16 -57 6 -94 -17z"/>
<path d="M554 785 c-20 -15 -11 -18 20 -6 11 4 15 10 9 14 -5 3 -19 0 -29 -8z"/>
<path d="M575 764 c-29 -15 -54 -34 -44 -34 13 0 102 49 89 50 -8 0 -28 -7 -45 -16z"/>
<path d="M563 730 c-39 -23 -39 -26 -13 -40 19 -10 48 4 105 52 20 17 -62 7 -92 -12z"/>
<path d="M391 639 c-18 -11 -31 -23 -27 -26 3 -3 12 -1 19 6 8 6 32 17 53 25 32 12 35 15 14 15 -14 1 -40 -8 -59 -20z"/>
<path d="M413 620 c-47 -21 -54 -35 -22 -45 13 -5 33 2 60 19 67 45 41 63 -38 26z"/>
<path d="M275 540 c-24 -9 -48 -36 -51 -55 -4 -25 34 -22 80 7 47 29 55 51 14 40 -14 -3 -19 -2 -14 6 8 14 0 14 -29 2z"/>
<path d="M102 385 c-46 -43 -29 -45 40 -4 68 40 67 39 30 39 -23 0 -43 -10 -70 -35z"/>
</g>


</svg>